From filmmaking sensation Quentin Tarantino comes this edgy, critically acclaimed action thriller starring some of the biggest names in Hollywood including Samuel L. Jackson, Robert De Niro, Michael Keaton and Bridget Fonda.

What do a sexy stewardess, a street-tough gunrunner, a lonely bail bondsman, a shifty ex-con, an overambitious cop and a stoned-out beach bunny have in common? They're all chasing a half million in cash! The only questions among these players are who's conning who and who'll walk away with the goods.

Format                           : MPEG-4
Format profile                   : Base Media / Version 2
Codec ID                         : mp42
File size                        : 1 000 MiB
Duration                         : 2h 28mn
Overall bit rate                 : 945 Kbps
Encoded date                     : UTC 2009-12-09 15:43:27
Tagged date                      : UTC 2009-12-09 23:24:46
Writing application              : HandBrake 0.9.3 2008112300

Video
ID                               : 1
Format                           : AVC
Format/Info                      : Advanced Video Codec
Format profile                   : Main@L4.0
Format settings, CABAC           : Yes
Format settings, ReFrames        : 3 frames
Codec ID                         : avc1
Codec ID/Info                    : Advanced Video Coding
Duration                         : 2h 28mn
Bit rate mode                    : Variable
Bit rate                         : 781 Kbps
Width                            : 702 pixels
Height                           : 554 pixels
Display aspect ratio             : 16:9
Frame rate mode                  : Variable
Frame rate                       : 25.000 fps
Minimum frame rate               : 12.500 fps
Maximum frame rate               : 25.000 fps
Resolution                       : 24 bits
Colorimetry                      : 4:2:0
Scan type                        : Progressive
Bits/(Pixel*Frame)               : 0.080
Stream size                      : 827 MiB (83%)
Writing library                  : x264 core 65


Audio
ID                               : 2
Format                           : AAC
Format/Info                      : Advanced Audio Codec
Format version                   : Version 4
Format profile                   : LC
Format settings, SBR             : No
Codec ID                         : 40
Duration                         : 2h 28mn
Bit rate mode                    : Variable
Bit rate                         : 160 Kbps
Maximum bit rate                 : 219 Kbps
Channel(s)                       : 2 channels
Channel positions                : L R
Sampling rate                    : 48.0 KHz
Resolution                       : 16 bits
Stream size                      : 169 MiB (17%)
Language                         : English
Encoded date                     : UTC 2009-12-09 15:43:28
Tagged date                      : UTC 2009-12-09 23:24:39

